<svg width="73" height="16" viewBox="0 0 73 16" fill="none" xmlns="http://www.w3.org/2000/svg">
    <path fill-rule="evenodd" clip-rule="evenodd" d="M61.884 1.35c0 .54-.414.99-.972.99a.983.983 0 0 1-.972-.99V.972c0-.54.432-.972.972-.972.558 0 .972.432.972.972v.378zM6.57 12.6a.945.945 0 0 0 .936-.954V7.344C7.506 5.31 5.832 3.6 3.744 3.6c-.702 0-1.368.216-1.908.558A.973.973 0 0 0 .954 3.6.949.949 0 0 0 0 4.554v7.092c0 .522.414.954.954.954a.984.984 0 0 0 .954-.774c.036-.072.036-.126.036-.18V7.344c0-1.008.792-1.818 1.8-1.818 1.026 0 1.872.81 1.872 1.818v4.302c0 .522.45.954.954.954zm8.19 3.222c2.394 0 4.32-1.962 4.32-4.32V4.554a.949.949 0 0 0-.954-.954.969.969 0 0 0-.954.756A4.092 4.092 0 0 0 14.76 3.6c-1.188 0-2.286.522-3.06 1.332a4.727 4.727 0 0 0-1.26 3.204c0 1.26.486 2.376 1.26 3.168a4.155 4.155 0 0 0 5.418.648 2.412 2.412 0 0 1-2.358 1.926c-.378 0-.72-.09-1.026-.252-.504-.216-1.062-.036-1.296.45a.953.953 0 0 0 .432 1.296 4.18 4.18 0 0 0 1.89.45zM13.104 9.99a2.187 2.187 0 0 0 1.656.738c.684 0 1.242-.252 1.71-.738.396-.414.684-1.098.684-1.854 0-.72-.288-1.404-.684-1.836-.468-.504-1.026-.774-1.71-.774-.63 0-1.224.27-1.656.774-.432.432-.72 1.116-.72 1.836 0 .756.288 1.44.72 1.854zM35.1 12.6a.96.96 0 0 0 .954-.954V7.38c0-2.088-1.674-3.78-3.744-3.78-1.134 0-2.16.468-2.826 1.242C28.8 4.068 27.792 3.6 26.658 3.6c-.684 0-1.35.198-1.926.54-.144-.342-.486-.54-.864-.54a.953.953 0 0 0-.954.972v7.074c0 .468.342.828.774.936.025 0 .05.004.077.008.031.005.064.01.103.01.378 0 .738-.252.9-.576v-.09c.024-.024.032-.048.04-.072.004-.012.008-.024.014-.036v-.054c0-.018.005-.04.009-.063a.353.353 0 0 0 .009-.063V7.38c0-1.026.828-1.854 1.818-1.854 1.008 0 1.836.81 1.854 1.8v4.32c0 .485.404.892.865.947l.107.007a.96.96 0 0 0 .954-.954v-4.32c.036-.99.846-1.8 1.872-1.8.99 0 1.818.828 1.818 1.854v4.266c0 .522.45.954.972.954zm12.294-3.744c0 2.052-1.728 3.744-3.798 3.744-2.052 0-3.744-1.692-3.744-3.744V4.554c0-.504.432-.954.954-.954.54 0 .954.45.954.954v4.302a1.82 1.82 0 0 0 1.836 1.836c1.044 0 1.872-.81 1.89-1.836V4.554c0-.504.396-.954.936-.954.504 0 .972.45.972.954v4.302zm6.57 3.744c.882 0 1.692-.27 2.34-.72.648-.468 1.134-1.206 1.134-2.088 0-.414-.126-.828-.342-1.188-.306-.504-.792-.846-1.278-1.062a6.479 6.479 0 0 0-1.674-.522h-.018l-.018-.018c-.612-.108-1.08-.27-1.314-.432a.485.485 0 0 1-.198-.18c-.036-.054-.036-.072-.036-.144 0-.09.054-.252.288-.414.234-.18.63-.324 1.08-.324.576 0 1.08.288 1.656.666a.953.953 0 0 0 1.332-.252.998.998 0 0 0-.194-1.26l-.094-.072c-.576-.396-1.458-.99-2.7-.99-.828 0-1.584.234-2.214.666-.594.45-1.062 1.152-1.062 1.98 0 .414.108.81.306 1.134.324.486.756.81 1.242 1.044.468.216 1.008.36 1.566.468h.018c.648.126 1.188.324 1.44.504.144.09.216.162.234.216.036.054.054.09.054.18 0 .144-.072.324-.324.54-.288.18-.738.342-1.224.342-.702.018-1.512-.396-1.98-.792a.936.936 0 0 0-1.35.144.96.96 0 0 0 .126 1.332c.72.576 1.8 1.224 3.204 1.242zm6.948 0a.957.957 0 0 0 .972-.972v-7.02c0-.576-.414-.99-.972-.99-.54 0-.972.414-.972.99v7.02c0 .54.432.972.972.972zm10.872-.954c-.774.558-1.782.954-2.862.954-2.484 0-4.572-2.016-4.572-4.482 0-2.502 2.088-4.5 4.572-4.518 1.08 0 2.088.396 2.862.99a.99.99 0 0 1 .198 1.332c-.36.432-.936.504-1.35.18a2.872 2.872 0 0 0-1.71-.576c-1.458 0-2.664 1.206-2.664 2.592 0 1.386 1.206 2.574 2.664 2.574.648 0 1.242-.234 1.71-.576.396-.306.99-.234 1.35.198.288.396.216.972-.198 1.332z" fill="#fff"/>
</svg>
